<svg xmlns="http://www.w3.org/2000/svg" width="900" height="520" viewBox="0 0 900 520" role="img" aria-label="Agent cynophile tenant un chien en laisse sans visage visible">
  <defs>
    <linearGradient id="sky" x1="0" x2="1" y1="0" y2="1">
      <stop offset="0" stop-color="#07111f"/>
      <stop offset="0.55" stop-color="#123254"/>
      <stop offset="1" stop-color="#0b1b2e"/>
    </linearGradient>
    <linearGradient id="ground" x1="0" x2="1">
      <stop offset="0" stop-color="#1e293b"/>
      <stop offset="1" stop-color="#334155"/>
    </linearGradient>
  </defs>
  <rect width="900" height="520" fill="url(#sky)"/>
  <rect y="375" width="900" height="145" fill="url(#ground)"/>
  <path d="M0 378h900" stroke="#d8a83f" stroke-width="4" opacity=".85"/>
  <g opacity=".22">
    <rect x="52" y="105" width="112" height="270" fill="#ffffff"/>
    <rect x="208" y="72" width="86" height="303" fill="#ffffff"/>
    <rect x="653" y="95" width="130" height="280" fill="#ffffff"/>
    <rect x="806" y="142" width="54" height="233" fill="#ffffff"/>
  </g>
  <g transform="translate(340 112)">
    <path d="M72 58c0-25 18-43 42-43s42 18 42 43v21H72z" fill="#0f172a"/>
    <path d="M72 78h84l25 142-38 10-12-63v170H97V167l-14 63-38-10z" fill="#101827"/>
    <path d="M87 93h54l-10 51h-34z" fill="#d8a83f"/>
    <path d="M63 205l-57 83" stroke="#0f172a" stroke-width="17" stroke-linecap="round"/>
    <path d="M163 205l78 91" stroke="#0f172a" stroke-width="17" stroke-linecap="round"/>
    <path d="M96 337v58" stroke="#0f172a" stroke-width="24" stroke-linecap="round"/>
    <path d="M133 337v58" stroke="#0f172a" stroke-width="24" stroke-linecap="round"/>
    <path d="M150 211c64 31 93 51 142 102" stroke="#d8a83f" stroke-width="6" fill="none" stroke-linecap="round"/>
  </g>
  <g transform="translate(565 300)" fill="#0f172a">
    <path d="M24 84c18-46 69-61 122-40 20 8 41 8 63-2 10 30-2 57-36 71-47 20-105 10-149-29z"/>
    <path d="M129 21c28-27 61-18 72 13-22 10-45 12-72-13z"/>
    <path d="M43 80l-30 52h31l20-36z"/>
    <path d="M127 101l-13 42h31l13-37z"/>
    <path d="M186 67l55-33c9-5 18 5 12 14l-44 56z"/>
    <circle cx="171" cy="45" r="6" fill="#d8a83f"/>
  </g>
  <text x="48" y="455" fill="#ffffff" font-family="Arial, sans-serif" font-size="34" font-weight="700">Agent cynophile AGP</text>
  <text x="48" y="488" fill="#d8a83f" font-family="Arial, sans-serif" font-size="20">Visuel original sans visage identifiable</text>
</svg>
